<svg width="146" height="22" viewBox="0 0 146 22" fill="none" xmlns="http://www.w3.org/2000/svg">
<path d="M17.0545 0.578517L10.1726 15.4936L3.14463 0.574456C3.08289 0.442465 2.94912 0.357178 2.80095 0.357178H0.378716C0.102948 0.359208 -0.0802114 0.641467 0.035035 0.889205L9.80629 21.7825C9.94211 22.0728 10.3619 22.0728 10.4957 21.7804L20.0715 0.887175C20.1846 0.639437 20.0015 0.359208 19.7257 0.359208H17.4002C17.252 0.359208 17.1162 0.444495 17.0545 0.578517Z" fill="white"/>
<path d="M88.3863 0.229237L78.5101 21.0961C78.4133 21.3012 78.5656 21.5367 78.7941 21.5367H81.3624C81.4838 21.5367 81.595 21.4677 81.6464 21.358L88.6909 6.57499L95.5933 21.356C95.6447 21.4657 95.7559 21.5367 95.8773 21.5367H98.3489C98.5774 21.5367 98.7296 21.3032 98.635 21.0981L88.9543 0.231267C88.8431 -0.00834823 88.4974 -0.0103789 88.3842 0.229237H88.3863Z" fill="white"/>
<path d="M46.0016 6.85515C45.448 5.57788 44.631 4.41635 43.5711 3.40103C42.5318 2.41414 41.3259 1.65062 39.9882 1.13484C38.6546 0.619053 37.2058 0.359131 35.6829 0.359131C34.16 0.359131 32.7277 0.619053 31.4003 1.12874C30.0667 1.64046 28.8628 2.40602 27.8235 3.40306C26.7657 4.41635 25.9487 5.57788 25.3951 6.85515C24.8415 8.13242 24.5596 9.5092 24.5596 10.9469C24.5596 12.3846 24.8415 13.7309 25.3951 15.0021C25.9487 16.2692 26.7657 17.4267 27.8235 18.442C28.8793 19.4451 30.0935 20.2208 31.4291 20.7468C32.7647 21.2707 34.195 21.5367 35.6829 21.5367C37.1708 21.5367 38.6032 21.2707 39.9429 20.7468C41.2847 20.2208 42.503 19.4471 43.5691 18.442C44.6186 17.447 45.4336 16.2936 45.9913 15.0163C46.5511 13.737 46.8351 12.3683 46.8351 10.9489C46.8351 9.5295 46.5531 8.13648 45.9995 6.85718L46.0016 6.85515ZM43.851 10.9489C43.851 12.017 43.6431 13.0466 43.2357 14.0111C42.8261 14.9777 42.2314 15.8509 41.4699 16.6043C40.6838 17.3556 39.7906 17.9343 38.8131 18.3262C37.8356 18.7181 36.7839 18.9151 35.685 18.9151C34.586 18.9151 33.5035 18.7181 32.5445 18.3323C31.5875 17.9465 30.7088 17.3657 29.9329 16.6083C29.1571 15.8407 28.5582 14.9676 28.1528 14.0091C27.7494 13.0527 27.5436 12.0231 27.5436 10.9469C27.5436 9.87065 27.7474 8.83299 28.1507 7.88671C28.5562 6.93637 29.155 6.06117 29.9247 5.29359C30.7109 4.54225 31.5999 3.96149 32.5692 3.56957C33.5364 3.17969 34.584 2.98069 35.6829 2.98069C36.7819 2.98069 37.85 3.17969 38.8316 3.56957C39.8112 3.95946 40.6961 4.53819 41.4617 5.28546C42.2376 6.05305 42.8364 6.92622 43.2398 7.88468C43.6431 8.84111 43.8489 9.87065 43.8489 10.9469L43.851 10.9489Z" fill="white"/>
<path d="M67.8642 0.740978V14.9047L54.3824 0.103357C54.191 -0.10783 53.835 0.0261923 53.835 0.310482V21.2383C53.835 21.4088 53.9749 21.5469 54.1478 21.5469H56.2901C56.463 21.5469 56.6029 21.4088 56.6029 21.2383V6.96489L70.0703 21.7926C70.2617 22.0038 70.6177 21.8698 70.6177 21.5855V0.740978C70.6177 0.570404 70.4778 0.43232 70.3049 0.43232H68.177C68.0041 0.43232 67.8642 0.570404 67.8642 0.740978Z" fill="white"/>
<path d="M121.109 0.412109H100.05C99.8257 0.412109 99.6734 0.63751 99.7619 0.842605L100.665 2.95041C100.715 3.06413 100.828 3.13926 100.953 3.13926L121.109 3.14535C121.282 3.14535 121.422 3.00727 121.422 2.83669V0.720767C121.422 0.550193 121.282 0.412109 121.109 0.412109Z" fill="white"/>
<path d="M103.516 9.60889L104.417 11.7187C104.467 11.8324 104.58 11.9076 104.705 11.9076L121.109 11.9116C121.282 11.9116 121.422 11.7735 121.422 11.603V9.48908C121.422 9.3185 121.282 9.18042 121.109 9.18042H103.804C103.58 9.18042 103.427 9.40582 103.516 9.61092V9.60889Z" fill="white"/>
<path d="M108.858 21.6121L121.109 21.6182C121.282 21.6182 121.422 21.4801 121.422 21.3095V19.1956C121.422 19.025 121.282 18.887 121.109 18.887H107.954C107.73 18.887 107.578 19.1124 107.666 19.3175L108.57 21.4253C108.619 21.539 108.732 21.6141 108.858 21.6141V21.6121Z" fill="white"/>
<path d="M140.148 15.7393C143.405 15.0326 145.591 12.0699 145.591 8.15689C145.591 3.59811 142.718 0.414062 138.606 0.414062H128.016C127.728 0.414062 127.495 0.643525 127.495 0.927814V2.62949C127.495 2.91378 127.728 3.14324 128.016 3.14324H138.606C141.52 3.14324 142.825 5.66124 142.825 8.15892C142.825 10.6566 141.52 13.1746 138.606 13.1746H136.27C136.097 13.1746 135.957 13.3127 135.957 13.4833V15.4672C135.957 15.5525 135.995 15.6357 136.058 15.6946L142.461 21.5449C142.518 21.5977 142.594 21.6282 142.673 21.6282H145.686C145.97 21.6282 146.107 21.285 145.9 21.0941L140.148 15.7434V15.7393Z" fill="white"/>
</svg>
